<svg width="20" height="20" viewBox="0 0 20 20" version="1.1" xmlns="http://www.w3.org/2000/svg">
    <title>
        options
    </title>
    <g stroke="none" stroke-width="1" fill="none" fill-rule="evenodd">
        <path d="M9.85 6.314L5.602 2.068c-.772-.772-2.045-.775-2.828.007l-.7.7c-.785.786-.786 2.05-.007 2.828L6.314 9.85l-4.246 4.245c-.772.772-.776 2.045.007 2.827l.7.7c.786.786 2.05.787 2.828.008l4.246-4.246 4.245 4.246c.772.772 2.044.775 2.827-.007l.7-.7c.786-.786.786-2.05.008-2.828L13.384 9.85l4.246-4.247c.772-.772.775-2.045-.008-2.827l-.7-.7c-.785-.786-2.05-.787-2.827-.008L9.85 6.314z" id="project" fill-opacity=".1" fill="#000"/>
    </g>
</svg>
