<svg width="9" height="25" viewBox="0 0 9 25" version="1.1" xmlns="http://www.w3.org/2000/svg">
    <title>
        options
    </title>
    <g stroke="none" stroke-width="1" fill="none" fill-rule="evenodd">
        <path d="M2 4.005C2 2.898 2.894 2 4.005 2h.99C6.102 2 7 2.894 7 4.005v.99C7 6.102 6.106 7 4.995 7h-.99C2.898 7 2 6.106 2 4.995v-.99zm0 8C2 10.898 2.894 10 4.005 10h.99C6.102 10 7 10.894 7 12.005v.99C7 14.102 6.106 15 4.995 15h-.99C2.898 15 2 14.106 2 12.995v-.99zm0 8C2 18.898 2.894 18 4.005 18h.99C6.102 18 7 18.894 7 20.005v.99C7 22.102 6.106 23 4.995 23h-.99C2.898 23 2 22.106 2 20.995v-.99z" id="project" fill-opacity=".1" fill="#000"/>
    </g>
</svg>
